# cubo1.obj
# cubo representado por quadrilateros  centrado na origem
# Linhas que iniciam com # sao comentarios
# Autor: Marcelo Walter
# Lista de vertices
v -0.5 0.5 0.5
v -0.5 -0.5 0.5
v 0.5 -0.5 0.5
v 0.5 0.5 0.5
v -0.5 0.5 -0.5
v -0.5 -0.5 -0.5
v 0.5 -0.5 -0.5
v 0.5 0.5 -0.5

# especificacao das normais
vn 0 0 1
vn 0 0 -1
vn 1 0 0
vn -1 0 0
vn 0 1 0
vn 0 -1 0

# Lista de faces
f 1//1 2//1 3//1
f 1//1 3//1 4//1
f 1//5 4//5 8//5
f 1//5 8//5 5//5
f 1//4 5//4 6//4
f 1//4 6//4 2//4
f 2//6 6//6 7//6
f 2//6 7//6 3//6
f 4//3 3//3 7//3
f 4//3 7//3 8//3
f 5//2 8//2 7//2
f 5//2 7//2 6//2

