#o Box 1
v 70.60529589653015 43.93796622753143 24.173274636268616
v -3.859013319015503 80.51652610301971 -31.657496094703674
v 70.60529589653015 -39.708301424980164 -30.629119277000427
v -3.859013319015503 -3.1297415494918823 -86.45989000797272
v -70.60529589653015 39.708301424980164 30.629119277000427
v 3.859013319015503 3.1297415494918823 86.45989000797272
v -70.60529589653015 -43.93796622753143 -24.173274636268616
v 3.859013319015503 -80.51652610301971 31.657496094703674
vn 0.6674628257751465 0.4080822467803955 -0.622866153717041
vn 0.6674628257751465 0.4080822467803955 -0.622866153717041
vn 0.6674628257751465 0.4080822467803955 -0.622866153717041
vn 0.6674628257751465 0.4080822467803955 -0.622866153717041
vn 0.6674628257751465 0.4080822467803955 -0.622866153717041
vn 0.6674628257751465 0.4080822467803955 -0.622866153717041
vn -0.6674628257751465 -0.4080822467803955 0.622866153717041
vn -0.6674628257751465 -0.4080822467803955 0.622866153717041
vn -0.6674628257751465 -0.4080822467803955 0.622866153717041
vn -0.6674628257751465 -0.4080822467803955 0.622866153717041
vn -0.6674628257751465 -0.4080822467803955 0.622866153717041
vn -0.6674628257751465 -0.4080822467803955 0.622866153717041
vn 5.387775559029251e-9 0.8364626169204712 0.5480239391326904
vn 5.387775559029251e-9 0.8364626169204712 0.5480239391326904
vn 5.387775559029251e-9 0.8364626169204712 0.5480239391326904
vn 5.387775559029251e-9 0.8364626169204712 0.5480239391326904
vn 5.387775559029251e-9 0.8364626169204712 0.5480239391326904
vn 5.387775559029251e-9 0.8364626169204712 0.5480239391326904
vn -5.387775559029251e-9 -0.8364626169204712 -0.5480239391326904
vn -5.387775559029251e-9 -0.8364626169204712 -0.5480239391326904
vn -5.387775559029251e-9 -0.8364626169204712 -0.5480239391326904
vn -5.387775559029251e-9 -0.8364626169204712 -0.5480239391326904
vn -5.387775559029251e-9 -0.8364626169204712 -0.5480239391326904
vn -5.387775559029251e-9 -0.8364626169204712 -0.5480239391326904
vn 0.7446431517601013 -0.3657855987548828 0.5583077669143677
vn 0.7446431517601013 -0.3657855987548828 0.5583077669143677
vn 0.7446431517601013 -0.3657855987548828 0.5583077669143677
vn 0.7446431517601013 -0.3657855987548828 0.5583077669143677
vn 0.7446431517601013 -0.3657855987548828 0.5583077669143677
vn 0.7446431517601013 -0.3657855987548828 0.5583077669143677
vn -0.7446431517601013 0.3657855987548828 -0.5583077669143677
vn -0.7446431517601013 0.3657855987548828 -0.5583077669143677
vn -0.7446431517601013 0.3657855987548828 -0.5583077669143677
vn -0.7446431517601013 0.3657855987548828 -0.5583077669143677
vn -0.7446431517601013 0.3657855987548828 -0.5583077669143677
vn -0.7446431517601013 0.3657855987548828 -0.5583077669143677
f 1//1 3//2 2//3
f 3//4 4//5 2//6
f 5//7 7//8 6//9
f 7//10 8//11 6//12
f 5//13 6//14 2//15
f 6//16 1//17 2//18
f 8//19 7//20 3//21
f 7//22 4//23 3//24
f 6//25 8//26 1//27
f 8//28 3//29 1//30
f 2//31 4//32 5//33
f 4//34 7//35 5//36
