o Box 2
v -50.85619235038757 -7.563607901334763 -286.7699827551842
v -15.080822944641113 16.76841178536415 -344.320615708828
v -50.85619235038757 -73.87999793887138 -314.80810302495956
v -15.080822944641113 -49.54797825217247 -372.35873597860336
v -77.56380581855774 30.699997633695602 -377.2719140648842
v -113.3391752243042 6.367977946996689 -319.7212811112404
v -77.56380581855774 -35.61639240384102 -405.3100343346596
v -113.3391752243042 -59.94841209053993 -347.7594013810158
vn 1.2053043842315674 -0.26874199509620667 0.6356346011161804
vn 1.2053043842315674 -0.26874199509620667 0.6356346011161804
vn 1.2053043842315674 -0.26874199509620667 0.6356346011161804
vn 1.2053043842315674 -0.26874199509620667 0.6356346011161804
vn 1.2053043842315674 -0.26874199509620667 0.6356346011161804
vn 1.2053043842315674 -0.26874199509620667 0.6356346011161804
vn -1.2053043842315674 0.26874199509620667 -0.6356346011161804
vn -1.2053043842315674 0.26874199509620667 -0.6356346011161804
vn -1.2053043842315674 0.26874199509620667 -0.6356346011161804
vn -1.2053043842315674 0.26874199509620667 -0.6356346011161804
vn -1.2053043842315674 0.26874199509620667 -0.6356346011161804
vn -1.2053043842315674 0.26874199509620667 -0.6356346011161804
vn -1.5186243373932484e-8 1.2792513370513916 0.5408588647842407
vn -1.5186243373932484e-8 1.2792513370513916 0.5408588647842407
vn -1.5186243373932484e-8 1.2792513370513916 0.5408588647842407
vn -1.5186243373932484e-8 1.2792513370513916 0.5408588647842407
vn -1.5186243373932484e-8 1.2792513370513916 0.5408588647842407
vn -1.5186243373932484e-8 1.2792513370513916 0.5408588647842407
vn 1.5186243373932484e-8 -1.2792513370513916 -0.5408588647842407
vn 1.5186243373932484e-8 -1.2792513370513916 -0.5408588647842407
vn 1.5186243373932484e-8 -1.2792513370513916 -0.5408588647842407
vn 1.5186243373932484e-8 -1.2792513370513916 -0.5408588647842407
vn 1.5186243373932484e-8 -1.2792513370513916 -0.5408588647842407
vn 1.5186243373932484e-8 -1.2792513370513916 -0.5408588647842407
vn -0.6901113390922546 -0.469367653131485 1.110158920288086
vn -0.6901113390922546 -0.469367653131485 1.110158920288086
vn -0.6901113390922546 -0.469367653131485 1.110158920288086
vn -0.6901113390922546 -0.469367653131485 1.110158920288086
vn -0.6901113390922546 -0.469367653131485 1.110158920288086
vn -0.6901113390922546 -0.469367653131485 1.110158920288086
vn 0.6901113390922546 0.469367653131485 -1.110158920288086
vn 0.6901113390922546 0.469367653131485 -1.110158920288086
vn 0.6901113390922546 0.469367653131485 -1.110158920288086
vn 0.6901113390922546 0.469367653131485 -1.110158920288086
vn 0.6901113390922546 0.469367653131485 -1.110158920288086
vn 0.6901113390922546 0.469367653131485 -1.110158920288086
f 1//1 3//2 2//3
f 3//4 4//5 2//6
f 5//7 7//8 6//9
f 7//10 8//11 6//12
f 5//13 6//14 2//15
f 6//16 1//17 2//18
f 8//19 7//20 3//21
f 7//22 4//23 3//24
f 6//25 8//26 1//27
f 8//28 3//29 1//30
f 2//31 4//32 5//33
f 4//34 7//35 5//36
